<?xml version="1.0" encoding="utf-8"?>
<!-- Generator: Adobe Illustrator 24.3.0, SVG Export Plug-In . SVG Version: 6.00 Build 0)  -->
<svg version="1.1" id="Capa_1" xmlns="http://www.w3.org/2000/svg" xmlns:xlink="http://www.w3.org/1999/xlink" x="0px" y="0px"
	 viewBox="0 0 100 100" style="enable-background:new 0 0 100 100;" xml:space="preserve">
<style type="text/css">
	.st0{display:none;}
	.st1{display:inline;fill:#F59925;stroke:#FFFFFF;stroke-width:4;stroke-miterlimit:10;}
	.st2{display:inline;fill:#21234C;stroke:#FFFFFF;stroke-width:4;stroke-miterlimit:10;}
	.st3{fill:none;stroke:#ECA616;stroke-width:13;stroke-linecap:round;stroke-linejoin:round;stroke-miterlimit:10;}
</style>
<g id="Capa_1_1_" class="st0">
	<polyline class="st1" points="158,-417.3 193.5,-391.1 347.9,110.7 320.3,110.7 158,-417.3 	"/>
	<polyline class="st1" points="517.5,110.7 553.1,136.9 553.1,278.5 517.5,252.4 517.5,110.7 	"/>
	<polygon class="st1" points="553.1,278.5 413.7,279 378.1,252.9 517.5,252.4 	"/>
	<polyline class="st1" points="444.9,517.3 480.4,543.4 413.7,279 378.1,252.9 444.9,517.3 	"/>
	<polyline class="st1" points="302,517.3 337.6,543.4 480.4,543.4 444.9,517.3 302,517.3 	"/>
	<polyline class="st1" points="-346.8,517.3 -311.2,543.4 -166,543.4 -201.6,517.3 -346.8,517.3 	"/>
	<polyline class="st1" points="-105.7,252.4 -70.1,278.5 -166,543.4 -201.6,517.3 -105.7,252.4 	"/>
	<polyline class="st1" points="209.5,252.4 -105.7,252.4 -70.1,278.5 223.5,279 209.5,252.4 	"/>
	<polyline class="st1" points="-418,252.4 -382.4,278.5 -254.8,279 -244.6,252.4 -418,252.4 	"/>
	<path class="st2" d="M-207.1,110.7"/>
	<path class="st2" d="M-207.1,110.7"/>
	<path class="st2" d="M-181,87.6c0,0-16.1,8.8-26.2,23.1"/>
	<path class="st1" d="M-256.8,110.7h50.5c0,0,5.1-9.9,25.3-23.1l18-46.7C-244.5,57.3-256.8,110.7-256.8,110.7z"/>
	<path class="st2" d="M-30.9,45.8c0,0,15,1.5,40.6,12.2"/>
	<path class="st2" d="M-30.9,45.8"/>
	<path class="st1" d="M4.6,71.9c13.8-0.8,67.6,22.7,67.6,22.7C53.1,76.2,9.7,57.9,9.7,57.9s-26.8-11-40.6-12.2L4.6,71.9z"/>
	<path class="st1" d="M-30.9,45.8l-23.6,65h44.9L4.6,71.9C4.6,71.9-24.3,47.6-30.9,45.8z"/>
	<path class="st1" d="M104.6-204.3L59.5-79.7l0,0C44-86,18.8-91.8,18.8-91.8l66.5-183.8L104.6-204.3z"/>
</g>
<path class="st3" d="M22.7,91.7L50.6,8.3l27.5,83.4c0,0-14-41.7-56.3-41.7"/>
</svg>
