<?xml version="1.0" encoding="utf-8"?>
<!-- Generator: Adobe Illustrator 24.3.0, SVG Export Plug-In . SVG Version: 6.00 Build 0)  -->
<svg version="1.1" xmlns="http://www.w3.org/2000/svg" xmlns:xlink="http://www.w3.org/1999/xlink" x="0px" y="0px"
	 viewBox="0 0 100 100" style="enable-background:new 0 0 100 100;" xml:space="preserve">
<style type="text/css">
	.st0{display:none;}
	.st1{display:inline;fill:#F59925;stroke:#FFFFFF;stroke-width:4;stroke-miterlimit:10;}
	.st2{display:inline;fill:#21234C;stroke:#FFFFFF;stroke-width:4;stroke-miterlimit:10;}
	.st3{fill:#F1AB2E;}
</style>
<g id="Capa_1" class="st0">
	<path class="st2" d="M-30.68,45.75c0,0,15.01,1.46,40.64,12.15"/>
	<path class="st1" d="M4.91,71.87c13.79-0.78,67.57,22.66,67.57,22.66C53.41,76.18,9.96,57.9,9.96,57.9s-26.79-10.98-40.64-12.15
		L4.91,71.87z"/>
	<path class="st1" d="M-30.68,45.75l-23.56,65.01h44.88L4.91,71.87C4.91,71.87-24.06,47.63-30.68,45.75z"/>
</g>
<g id="Capa_2">
	<path class="st3" d="M90.47,56.35H77.3L62.51,8.21c-1.29-4.18-5.15-7.04-9.53-7.04h-0.83c-4.12,0-7.82,2.54-9.3,6.38L32.81,33.57
		c-1.92-0.05-20.47-0.1-28.62,17.89c-4.18,9.23,2.52,19.7,12.65,19.7h1.11l-6.63,18.13c-1.77,4.6,1.62,9.55,6.55,9.55
		c2.96,0,5.6-1.85,6.6-4.64l7.98-23.05l33.24,0c3.21,5.76,6.16,13.02,8.45,22.22c0.79,3.2,3.65,5.46,6.95,5.46
		c4.66,0,8.08-4.39,6.94-8.91L83.33,71.2l7.16-0.02c4.09-0.01,7.39-3.33,7.39-7.42C97.88,59.67,94.56,56.35,90.47,56.35z
		 M59.71,41.74c0,0-6.49-5.02-13.89-6.56l6.95-19.21L59.71,41.74z M18.76,53.54c1.33-1.63,3.75-3.52,8.07-4.44l-2.8,7.25H20.1
		C18.65,56.35,17.84,54.66,18.76,53.54z M40.62,49.56c0,0,5.98,0.76,13.21,6.79H38.17L40.62,49.56z"/>
</g>
</svg>
